<?xml version="1.0" encoding="UTF-8"?>
<svg version="1.1" xmlns="http://www.w3.org/2000/svg" width="512" height="512">
<path d="M0 0 C5.89373962 3.24155679 11.20585115 7.26420312 16.46777344 11.43457031 C24.11335992 17.58150386 24.11335992 17.58150386 33.37109375 19.75 C36.83613038 18.54640519 39.34609306 16.91011428 42.3125 14.75 C43.45176836 13.93481959 44.59109297 13.11971777 45.73046875 12.3046875 C46.30974121 11.88413086 46.88901367 11.46357422 47.48583984 11.03027344 C50.34794207 8.95320949 53.23243545 6.90933111 56.125 4.875 C57.13304687 4.15570312 58.14109375 3.43640625 59.1796875 2.6953125 C66.83937113 -2.15776949 73.32298631 -3.25472211 82.25 -2.25 C92.91102623 2.48823388 97.56936969 13.92188697 101.9375 24 C102.77006286 25.9053485 103.60684722 27.80841231 104.45478821 29.70697021 C105.21799342 31.41761901 105.96627337 33.13490407 106.71362305 34.85253906 C108.26758541 37.78316442 109.68403433 39.66178543 112.25 41.75 C115.48010346 42.27204009 115.48010346 42.27204009 119 42.0625 C120.75570312 42.02576172 120.75570312 42.02576172 122.546875 41.98828125 C125.75098555 41.78210958 128.88638782 41.40298351 132.06738281 40.98364258 C136.28769887 40.53187049 140.50902808 40.48313456 144.75 40.4375 C145.64847656 40.40849609 146.54695313 40.37949219 147.47265625 40.34960938 C154.20646214 40.28589797 159.71536187 41.47567783 164.77490234 46.16259766 C170.34185265 52.45033212 170.54370813 58.05217116 170.4375 66.0625 C170.43685547 66.97451172 170.43621094 67.88652344 170.43554688 68.82617188 C170.4006912 74.22880206 169.96783309 79.3993826 169.25 84.75 C169.09467402 87.16391846 168.98810489 89.5816188 168.9375 92 C168.90011719 93.18078125 168.86273438 94.3615625 168.82421875 95.578125 C169.00336744 98.7530976 169.00336744 98.7530976 170.77734375 100.93359375 C174.03703367 103.3281527 177.43883859 104.92498261 181.125 106.5625 C182.65147201 107.26469025 184.17750725 107.96783066 185.703125 108.671875 C187.90136313 109.6771555 190.10001944 110.68151507 192.29882812 111.68554688 C209.65915032 119.69126559 209.65915032 119.69126559 213.25 128.75 C215.09954085 141.55451356 210.12946127 150.01192362 202.73144531 159.94604492 C201.68591878 161.3235023 200.63101108 162.69390568 199.56542969 164.0559082 C193.45064127 171.37306419 193.45064127 171.37306419 191.25 180.3046875 C192.37033242 184.16458278 193.86963187 186.64331966 196.25 189.875 C197.06524904 191.00510384 197.88034872 192.13531543 198.6953125 193.265625 C199.11586914 193.83861328 199.53642578 194.41160156 199.96972656 195.00195312 C202.05685534 197.85165604 204.09484455 200.73456618 206.125 203.625 C206.84429687 204.63304687 207.56359375 205.64109375 208.3046875 206.6796875 C213.00580843 214.09952897 214.08209097 220.12760806 213.25 228.75 C211.44640407 235.0024659 206.33777922 238.97386174 201.25 242.75 C196.78876506 245.12234981 192.1794052 247.0388681 187.5 248.9375 C185.10480273 249.91991514 182.7139699 250.91305405 180.328125 251.91796875 C179.28043945 252.34360107 178.23275391 252.7692334 177.15332031 253.20776367 C173.83293271 254.97154508 171.68322901 256.89348076 169.25 259.75 C168.610033 263.05173529 168.610033 263.05173529 168.875 266.5625 C168.90851563 267.72394531 168.94203125 268.88539063 168.9765625 270.08203125 C169.16244806 272.57555332 169.42460914 275.06430597 169.75390625 277.54296875 C170.39494331 282.44122519 170.50939337 287.31462363 170.5625 292.25 C170.59150391 293.14847656 170.62050781 294.04695313 170.65039062 294.97265625 C170.71063599 301.34012843 169.531157 305.27931375 166.25 310.75 C165.92 311.08 165.59 311.41 165.25 311.75 C165.21132186 313.35636909 165.23848505 314.9644018 165.29296875 316.5703125 C165.81340545 337.95802797 162.84716785 354.41333349 147.5546875 370.50390625 C132.21699247 385.45165988 114.92976258 388.90000997 94.265625 388.91796875 C92.919006 388.92118769 91.57238734 388.92455223 90.22576904 388.92805481 C87.41857084 388.93400999 84.61140328 388.93589814 81.80419922 388.93530273 C78.2108073 388.93520061 74.61761074 388.94892022 71.02426529 388.96607494 C68.24986874 388.97719272 65.47551976 388.97922211 62.70110321 388.97869301 C60.73352088 388.98044174 58.76595339 388.99127119 56.79840088 389.00224304 C55.60325867 388.99916641 54.40811646 388.99608978 53.17675781 388.99291992 C51.60078827 388.99505745 51.60078827 388.99505745 49.99298096 388.99723816 C47.09621616 388.73613872 45.54993292 388.53247401 43.25 386.75 C42.59 384.77 41.93 382.79 41.25 380.75 C36.63 380.75 32.01 380.75 27.25 380.75 C26.92 382.4 26.59 384.05 26.25 385.75 C21.80934394 390.01670257 15.79013892 389.17094389 10.02832031 389.13818359 C8.89422226 389.14344055 7.76012421 389.14869751 6.59165955 389.15411377 C2.83700831 389.1673293 -0.91721931 389.15856272 -4.671875 389.1484375 C-7.29201336 389.15045946 -9.91215116 389.15337192 -12.5322876 389.15713501 C-18.03345295 389.16259302 -23.53449754 389.15540953 -29.03564453 389.14111328 C-35.35265246 389.12488396 -41.66936839 389.13000358 -47.98636889 389.1465925 C-54.09832463 389.16198872 -60.21015347 389.16017528 -66.32212067 389.1514473 C-68.90378105 389.14946116 -71.48544897 389.15184807 -74.06710052 389.15888596 C-103.14104696 389.22068815 -127.37520476 385.87101374 -149.4453125 365.140625 C-161.09932756 353.05205344 -171.75 334.0666766 -171.75 316.75 C-172.41826309 316.75666183 -173.08652618 316.76332367 -173.77503967 316.77018738 C-180.80057916 316.83713347 -187.82602641 316.88204376 -194.85180664 316.91479492 C-197.46545092 316.9297779 -200.07907052 316.95017128 -202.69262695 316.97631836 C-230.83309632 317.25057097 -230.83309632 317.25057097 -242.75 313.75 C-243.51610596 313.53077881 -244.28221191 313.31155762 -245.0715332 313.08569336 C-264.99050649 306.76075818 -281.18636367 292.09883715 -290.75 273.75 C-296.5479402 261.83538466 -299.31389655 250.18346366 -299.1875 236.9375 C-299.17847656 235.79748535 -299.16945313 234.6574707 -299.16015625 233.48291016 C-298.76838055 214.35935866 -291.69459361 196.89695705 -278.75 182.75 C-278.15960938 182.06808594 -277.56921875 181.38617188 -276.9609375 180.68359375 C-262.92036447 165.41820477 -242.18649398 157.47799432 -221.78125 156.57421875 C-218.76281585 156.56437603 -215.76472018 156.60843923 -212.75 156.75 C-212.49992187 156.03972656 -212.24984375 155.32945312 -211.9921875 154.59765625 C-207.3115217 143.86745068 -195.79271764 130.98269693 -185.75 124.75 C-183.75 124.421875 -183.75 124.421875 -181.75 124.5 C-181.05003906 124.520625 -180.35007812 124.54125 -179.62890625 124.5625 C-177.75 124.75 -177.75 124.75 -175.6875 125.5 C-172.25098507 125.94342128 -169.61576804 123.50130269 -166.75 121.75 C-166.09 121.75 -165.43 121.75 -164.75 121.75 C-164.8325 120.6775 -164.915 119.605 -165 118.5 C-164.75 114.75 -164.75 114.75 -163.171875 112.6796875 C-154.12794565 105.47371799 -138.94521335 103.86907633 -127.80859375 103.5546875 C-126.73343506 103.5227832 -125.65827637 103.49087891 -124.55053711 103.45800781 C-122.37598358 103.40331825 -120.20083191 103.36832701 -118.02563477 103.35449219 C-116.51247681 103.32210449 -116.51247681 103.32210449 -114.96875 103.2890625 C-114.06060547 103.28084473 -113.15246094 103.27262695 -112.21679688 103.26416016 C-108.9716376 102.58776413 -107.76783517 101.33479906 -105.75 98.75 C-105.22732937 95.29018062 -105.22732937 95.29018062 -105.4375 91.5 C-105.46199219 90.23671875 -105.48648438 88.9734375 -105.51171875 87.671875 C-105.7120396 84.37479079 -106.0820936 81.15569429 -106.51635742 77.88378906 C-106.95853439 73.84551662 -107.0163744 69.80905317 -107.0625 65.75 C-107.09150391 64.89921875 -107.12050781 64.0484375 -107.15039062 63.171875 C-107.21599556 56.59119502 -105.90595772 51.16122703 -101.33740234 46.22314453 C-95.04554187 40.66059993 -89.44949831 40.45626974 -81.4375 40.5625 C-80.06948242 40.5634668 -80.06948242 40.5634668 -78.67382812 40.56445312 C-73.27147699 40.599307 -68.09983612 41.02600358 -62.75 41.75 C-60.35754661 41.92835116 -57.96059373 42.05579863 -55.5625 42.125 C-54.39332031 42.17398438 -53.22414062 42.22296875 -52.01953125 42.2734375 C-48.72918145 41.74666704 -47.15729404 41.13571538 -44.96313477 38.61816406 C-42.11000992 34.22450109 -40.28808662 29.2688851 -38.3125 24.4375 C-34.078019 14.1019836 -29.90603693 5.46442708 -20.75 -1.25 C-13.75485288 -3.58171571 -6.66181573 -3.10763224 0 0 Z " fill="#020201" transform="translate(298.75,3.25)"/>
<path d="M0 0 C18.35123391 15.95086154 30.17259127 35.45269391 33.60083008 59.56420898 C34.04349626 62.4303345 34.4469035 64.88620268 36 67.3671875 C38.53469221 68.86014906 40.79583755 68.99893097 43.71484375 69.2890625 C56.04718896 70.9862998 67.45966682 76.33205414 75.84375 85.73046875 C77.68907343 88.21348495 79.25689778 90.72070107 80.77734375 93.4140625 C81.28394531 94.27257812 81.79054688 95.13109375 82.3125 96.015625 C85.59001308 102.49761466 86.23064276 108.45696907 86.27734375 115.6015625 C86.2837085 116.43284668 86.29007324 117.26413086 86.29663086 118.12060547 C86.04252179 130.49706734 80.47939356 141.3034939 72.13671875 150.2734375 C61.07561772 160.30900598 48.35633543 162.85899872 33.85346985 162.82475281 C31.75955703 162.82020602 29.66645904 162.83445706 27.57263184 162.85314941 C22.38517169 162.89576958 17.19773659 162.90722262 12.01013184 162.91937256 C7.5976732 162.93089613 3.18559827 162.95439275 -1.22669983 162.99406433 C-3.28699925 163.00761903 -5.34677815 163.00347118 -7.40710449 162.99865723 C-8.65270142 163.00876831 -9.89829834 163.01887939 -11.18164062 163.02929688 C-12.27875366 163.03135132 -13.3758667 163.03340576 -14.50622559 163.03552246 C-17.21457336 163.20245194 -17.21457336 163.20245194 -19.03771973 164.68811035 C-20.52696979 166.64207645 -20.52696979 166.64207645 -21.22265625 170.4140625 C-26.50265625 170.4140625 -31.78265625 170.4140625 -37.22265625 170.4140625 C-38.21265625 167.9390625 -38.21265625 167.9390625 -39.22265625 165.4140625 C-42.47460513 163.24609658 -43.37053388 163.16275417 -47.12753296 163.15577698 C-48.13939667 163.14894897 -49.15126038 163.14212097 -50.19378662 163.13508606 C-51.85815765 163.13891548 -51.85815765 163.13891548 -53.55615234 163.14282227 C-54.72564423 163.13759552 -55.89513611 163.13236877 -57.10006714 163.12698364 C-60.31143393 163.11404306 -63.52268906 163.10968673 -66.73407698 163.10814023 C-70.10463015 163.10366494 -73.47510403 163.08566176 -76.84561157 163.06834412 C-86.88046568 163.01917791 -96.9153667 162.98838373 -106.95031738 162.96704102 C-114.73345802 162.95045409 -122.51645283 162.92742966 -130.29949629 162.88402027 C-133.64841692 162.86593101 -136.9969616 162.85544502 -140.34595871 162.85531807 C-144.09589174 162.85512451 -147.84535529 162.8367446 -151.59521484 162.81469727 C-152.68455322 162.81927444 -153.7738916 162.82385162 -154.89624023 162.8285675 C-173.37246129 162.6571783 -188.7110871 156.00927422 -201.703125 143.06640625 C-214.69799288 129.38653758 -219.74362033 113.74908022 -219.57202148 95.13305664 C-219.11824056 78.00167317 -212.2091057 63.6997057 -200.22265625 51.4140625 C-189.22004923 41.64596959 -175.91920657 34.28858935 -160.96484375 34.31640625 C-159.84464844 34.31833984 -158.72445312 34.32027344 -157.5703125 34.32226562 C-155.24700561 34.34186608 -152.92377499 34.38894308 -150.6015625 34.46289062 C-144.36666118 34.57034695 -144.36666118 34.57034695 -139.21704102 31.53930664 C-137.6785205 29.22875832 -136.43268252 26.90980762 -135.22265625 24.4140625 C-119.72352254 1.899847 -99.77167379 -13.3611359 -72.66015625 -18.8359375 C-46.80276629 -22.49626933 -20.57083051 -16.42280295 0 0 Z " fill="#D2DCE9" transform="translate(362.22265625,213.5859375)"/>
<path d="M0 0 C1.80500977 -0.01160156 1.80500977 -0.01160156 3.64648438 -0.0234375 C25.5326193 0.02385831 44.45033608 7.26280273 61.3125 21.25 C61.88226563 21.67410156 62.45203125 22.09820312 63.0390625 22.53515625 C72.05879257 29.52437837 78.83798758 39.60182391 83.9375 49.6875 C84.43334595 50.66178955 84.43334595 50.66178955 84.93920898 51.65576172 C86.98463823 55.92177069 87.86880477 59.60319184 88.3125 64.25 C87.79453857 64.53609131 87.27657715 64.82218262 86.74291992 65.11694336 C76.56785109 70.77302146 66.88793206 76.29798384 58.3125 84.25 C57.44238281 85.05179687 56.57226562 85.85359375 55.67578125 86.6796875 C49.23705885 92.85855115 43.70168566 99.50013924 39.67578125 107.50390625 C37.11642777 110.4778327 36.86480221 110.65581019 33.22265625 110.94921875 C31.6068931 110.96947648 29.9906686 110.9642563 28.375 110.9375 C26.6508562 110.97383721 24.92686191 111.01812731 23.203125 111.0703125 C22.36330078 111.09383789 21.52347656 111.11736328 20.65820312 111.14160156 C2.76488624 111.9684784 -15.61134465 123.17214849 -27.71875 135.875 C-36.94023552 146.99933174 -43.72384589 159.95051094 -46.3515625 174.19140625 C-46.54842651 175.21675476 -46.54842651 175.21675476 -46.74926758 176.26281738 C-47.06744718 177.92417982 -47.37826342 179.58694975 -47.6875 181.25 C-55.28588072 181.3433739 -62.8842007 181.41410227 -70.48302746 181.45724869 C-74.01290076 181.47797466 -77.54237675 181.5060106 -81.07202148 181.55175781 C-85.14570559 181.60421564 -89.2189835 181.62306869 -93.29296875 181.640625 C-94.5382988 181.66127014 -95.78362885 181.68191528 -97.06669617 181.70318604 C-114.60295841 181.70760017 -130.46429225 174.68897363 -142.890625 162.34375 C-156.11967384 148.29584669 -161.31126476 131.09629387 -161 112.05078125 C-159.56483019 94.59552846 -150.63010316 78.92229599 -137.5625 67.5625 C-123.55243943 56.59894844 -109.33889811 52.57418575 -91.765625 53.54296875 C-85.86899062 53.79028097 -85.86899062 53.79028097 -80.75 51.15234375 C-78.5563252 48.06541122 -76.49865048 44.93916446 -74.5625 41.6875 C-69.38415919 33.32163478 -63.17359803 25.7476806 -55.40625 19.6328125 C-52.36348779 17.43604292 -52.36348779 17.43604292 -51.875 13.6875 C-51.7821875 11.9859375 -51.7821875 11.9859375 -51.6875 10.25 C-51.5625 8.0625 -51.5625 8.0625 -50.6875 6.25 C-47.80798483 3.98589572 -45.10471072 2.17339402 -41.375 2.375 C-39.6875 3.25 -39.6875 3.25 -37.6875 5.25 C-32.45567896 5.79498136 -28.28287108 4.72020308 -23.3125 3.1015625 C-22.44625 2.82054688 -21.58 2.53953125 -20.6875 2.25 C-19.71167969 1.89164062 -18.73585937 1.53328125 -17.73046875 1.1640625 C-11.9794045 -0.45357 -5.91995705 -0.03744833 0 0 Z " fill="#D2DCE9" transform="translate(175.6875,122.75)"/>
<path d="M0 0 C20.72712171 16.15345334 35.35918557 37.29296347 41.57446289 63.046875 C41.7974707 63.91054687 42.02047852 64.77421875 42.25024414 65.6640625 C48.26665424 93.9043548 41.04433708 123.9869156 25.88208008 148.11865234 C22.25259585 153.47071852 17.9353847 158.28654166 13.57446289 163.046875 C10.9012296 160.37364171 10.15629884 157.29323951 8.94946289 153.796875 C-0.82148273 126.88365408 -20.23077423 106.45175641 -45.98803711 94.234375 C-67.81533166 84.29578684 -92.94875206 82.00004213 -116.42553711 87.046875 C-116.83803711 85.97050781 -117.25053711 84.89414063 -117.67553711 83.78515625 C-126.08126314 62.32908399 -138.81290808 44.83400761 -157.42553711 31.046875 C-147.60370699 11.96323139 -130.21585048 -1.4289276 -111.42553711 -10.953125 C-110.46389648 -11.44683594 -109.50225586 -11.94054687 -108.51147461 -12.44921875 C-73.63977969 -28.57863383 -30.42564746 -22.96826165 0 0 Z " fill="#FDCE72" transform="translate(395.425537109375,94.953125)"/>
<path d="M0 0 C5.06455801 0.35385558 8.00256878 2.04358991 12.0625 5 C13.20040313 5.81526848 14.33842764 6.63036756 15.4765625 7.4453125 C16.05567383 7.86586914 16.63478516 8.28642578 17.23144531 8.71972656 C20.11078463 10.80410749 23.02220632 12.84136976 25.9375 14.875 C26.95714844 15.59429687 27.97679687 16.31359375 29.02734375 17.0546875 C36.79354747 22.13690754 42.78255516 23.15712559 52 22 C60.46051296 19.40266636 67.42245609 13.70032458 74.30615234 8.31542969 C85.09705146 -0.12203351 85.09705146 -0.12203351 89.52026367 0.16162109 C94.10389301 1.7113093 95.78061214 5.9254467 98 10 C100.21446531 14.74215538 102.13285738 19.59841571 104.03515625 24.47265625 C107.30281307 32.41443705 111.76581039 40.48735147 120 44.0625 C129.4475435 46.48159418 139.92778792 45.44494658 149.33203125 43.453125 C155.3898284 42.42427512 162.63340237 41.52821475 168 45 C170.90344143 50.80688287 169.1930132 59.64436793 168 65.8125 C167.10058808 70.67838321 166.74670606 75.37733298 166.6875 80.3125 C166.66236328 82.25576172 166.66236328 82.25576172 166.63671875 84.23828125 C167.22758837 90.35664085 169.62793099 95.60482561 173.76171875 100.1796875 C181.13606554 106.17697476 190.90986448 109.57932288 199.625 113.1875 C208.74479006 117.05429099 208.74479006 117.05429099 212 121 C211.78434575 126.09662884 209.88420581 129.11872096 206.9375 133.1875 C206.5362793 133.75065918 206.13505859 134.31381836 205.72167969 134.89404297 C203.78873576 137.59575414 201.80713891 140.25452183 199.80078125 142.90234375 C191.12413044 154.23652028 191.12413044 154.23652028 188.546875 167.8828125 C190.97903028 179.24684836 197.78910826 187.55262233 204.72265625 196.58203125 C211.80135563 205.91423407 211.80135563 205.91423407 212.25 210.625 C208.22852896 218.26579498 195.3990244 221.48645261 187.93164062 224.63085938 C180.08163066 228.08605692 171.93459728 232.41766068 167.953125 240.4375 C166.79974933 244.74847792 166.63088173 248.56284428 166.75 253 C166.75773437 254.15242188 166.75773437 254.15242188 166.765625 255.328125 C166.82874459 259.96741517 167.30902983 264.4064303 168 269 C168.06056151 270.64485066 168.08781955 272.29172957 168.0625 273.9375 C168.05347656 274.70964844 168.04445313 275.48179687 168.03515625 276.27734375 C168.01775391 277.13005859 168.01775391 277.13005859 168 278 C167.38125 277.360625 166.7625 276.72125 166.125 276.0625 C165.08365063 275.041343 164.04192765 274.02056695 163 273 C162.34128906 272.32195312 161.68257812 271.64390625 161.00390625 270.9453125 C153.39838179 263.53217062 143.47566474 257.3809636 133 255 C134.47484596 251.58941873 136.41147707 249.39399128 139 246.75 C162.30505822 221.19686542 169.32172676 187.56831932 168 154 C167.65020722 149.55325922 167.00641562 145.34196454 166 141 C165.61521484 139.24623047 165.61521484 139.24623047 165.22265625 137.45703125 C158.09310399 107.9290573 139.92866489 80.63350744 114.3046875 64.01171875 C113.21414063 63.34785156 112.12359375 62.68398437 111 62 C109.90945313 61.32582031 108.81890625 60.65164062 107.6953125 59.95703125 C100.10326913 55.48859599 92.14669791 52.44037272 83.8125 49.625 C82.82725342 49.29105225 81.84200684 48.95710449 80.8269043 48.61303711 C69.52757299 44.95634734 58.66558308 43.62954288 46.8125 43.6875 C45.63212158 43.69168945 44.45174316 43.69587891 43.2355957 43.70019531 C33.84792893 43.82083796 25.10767259 44.78331778 16 47 C14.85402344 47.25523438 13.70804687 47.51046875 12.52734375 47.7734375 C-8.20941562 52.96357934 -25.70288863 64.3749937 -41 79 C-41.66128906 79.598125 -42.32257813 80.19625 -43.00390625 80.8125 C-49.66806107 87.05930371 -54.74243639 94.57755725 -60 102 C-66 100 -72 98 -78 96 C-77.855625 95.45214844 -77.71125 94.90429688 -77.5625 94.33984375 C-74.81925543 82.62390342 -75.83779093 71.1678236 -77.5390625 59.39453125 C-79.03353135 48.38865469 -79.03353135 48.38865469 -76.3515625 44.78515625 C-71.89378746 41.40109779 -66.34816041 42.58124024 -61 43 C-59.03665934 43.30244673 -57.07765466 43.63486945 -55.125 44 C-45.52029043 45.76828428 -33.78844065 47.08438828 -25 42 C-17.99446021 35.79593017 -14.37848308 28.28376011 -10.75 19.8125 C-3.70239282 3.70239282 -3.70239282 3.70239282 0 0 Z " fill="#FCEB8A" transform="translate(285,16)"/>
<path d="M0 0 C-2.24780312 2.24780312 -3.17210808 2.4077711 -6.1875 3.125 C-24.00911541 8.2648572 -36.01875696 19.10718726 -45 35 C-46.63636786 38.49193765 -47 40.03314175 -47 44 C-45.09330097 45.53325648 -45.09330097 45.53325648 -42.5625 46.75 C-34.65879067 51.20074128 -27.66383736 56.50655885 -24 65 C-24.33 65.99 -24.66 66.98 -25 68 C-25.94101563 67.57847656 -26.88203125 67.15695313 -27.8515625 66.72265625 C-29.10921737 66.16891269 -30.36703881 65.61554732 -31.625 65.0625 C-32.24246094 64.78470703 -32.85992187 64.50691406 -33.49609375 64.22070312 C-45.66196616 58.90613781 -63.65136538 59.00087077 -76.28125 62.90234375 C-95.17668366 70.53110361 -107.88621047 82.7505458 -116.02734375 101.3671875 C-121.90267938 117.27070644 -121.05124319 136.57652122 -114 152 C-108.32480064 163.04058635 -100.27377557 171.99337197 -89.87109375 178.72265625 C-89.25363281 179.14417969 -88.63617188 179.56570313 -88 180 C-88 180.33 -88 180.66 -88 181 C-105.57257088 181.94844461 -120.97297276 176.71855406 -134.25 164.9375 C-147.29954827 152.75991141 -153.99622513 137.0376395 -155.2578125 119.39453125 C-155.77686802 102.6982454 -150.04945693 87.11847566 -139.24609375 74.375 C-128.73862891 63.26449805 -113.75504627 53.66788069 -98.04394531 52.84521484 C-94.04796798 52.8957387 -90.06803792 53.07301201 -86.078125 53.29296875 C-80.18149062 53.54028097 -80.18149062 53.54028097 -75.0625 50.90234375 C-72.8688252 47.81541122 -70.81115048 44.68916446 -68.875 41.4375 C-63.69665919 33.07163478 -57.48609803 25.4976806 -49.71875 19.3828125 C-46.67598779 17.18604292 -46.67598779 17.18604292 -46.1875 13.4375 C-46.0946875 11.7359375 -46.0946875 11.7359375 -46 10 C-45.875 7.8125 -45.875 7.8125 -45 6 C-42.12048483 3.73589572 -39.41721072 1.92339402 -35.6875 2.125 C-34 3 -34 3 -32 5 C-25.86769334 5.63878194 -20.78164544 3.91785973 -15 2 C-9.69432791 0.26193501 -5.52156786 -0.19373922 0 0 Z " fill="#96AECA" transform="translate(170,123)"/>
<path d="M0 0 C0 0.33 0 0.66 0 1 C-1.61455078 1.03867188 -1.61455078 1.03867188 -3.26171875 1.078125 C-22.65712963 1.74308501 -39.31185025 7.70831631 -53 22 C-59.19177534 28.78550722 -63.10196822 36.30590466 -66 45 C-65.13375 45.24621094 -64.2675 45.49242187 -63.375 45.74609375 C-54.75625694 48.94819621 -47.7133467 55.32170271 -42.890625 63.0546875 C-42 65 -42 65 -42 68 C-42.53367187 67.81824219 -43.06734375 67.63648438 -43.6171875 67.44921875 C-49.37458106 65.50684549 -55.15870845 63.67470535 -61 62 C-61.89332031 61.71962891 -61.89332031 61.71962891 -62.8046875 61.43359375 C-79.3115824 58.17333515 -96.15977103 62.98514816 -110 72 C-112.28053363 73.82017746 -114.42266406 75.67946927 -116.51171875 77.71484375 C-118 79 -118 79 -120 79 C-120.27328125 79.5878125 -120.5465625 80.175625 -120.828125 80.78125 C-121.9655716 82.93481556 -123.21442675 84.6176844 -124.75 86.5 C-135.83348735 101.13345518 -139.03113407 118.01558955 -137 136 C-133.8014799 152.54803215 -125.05735521 166.95233911 -111.359375 176.921875 C-109.79561239 177.95454842 -108.21648657 178.96467169 -106.6171875 179.94140625 C-106.08351563 180.29074219 -105.54984375 180.64007813 -105 181 C-105 181.33 -105 181.66 -105 182 C-122.06327825 182.83010543 -137.08429332 178.13952538 -150.01489258 166.91625977 C-162.77698325 155.23730599 -171.49499319 140.57876155 -172.28125 122.99609375 C-172.7847995 103.60508222 -168.40903 88.56779375 -155.50390625 73.56640625 C-145.65384708 63.47047977 -131.51451095 54.40138346 -117.0234375 53.89624023 C-115.940625 53.89825439 -114.8578125 53.90026855 -113.7421875 53.90234375 C-112.62199219 53.90427734 -111.50179687 53.90621094 -110.34765625 53.90820312 C-108.02434936 53.92780358 -105.70111874 53.97488058 -103.37890625 54.04882812 C-97.14400493 54.15628445 -97.14400493 54.15628445 -91.99438477 51.12524414 C-90.45586425 48.81469582 -89.21002627 46.49574512 -88 44 C-72.50086629 21.4857845 -52.54901754 6.2248016 -25.4375 0.75 C-17.03175356 -0.5293793 -8.47663636 -0.15960194 0 0 Z " fill="#96AECA" transform="translate(315,194)"/>
<path d="M0 0 C0.66257813 0.09152344 1.32515625 0.18304688 2.0078125 0.27734375 C4.76783909 1.43794071 5.49481682 2.36430405 6.875 5.0625 C7.37713626 8.30646561 7.47776012 11.53427703 7.5625 14.8125 C7.59666016 15.70066406 7.63082031 16.58882813 7.66601562 17.50390625 C7.74828714 19.68997803 7.81750172 21.87565951 7.875 24.0625 C8.7928125 23.485 9.710625 22.9075 10.65625 22.3125 C11.89527402 21.56157635 13.13488948 20.81162799 14.375 20.0625 C15.27605469 19.49015625 15.27605469 19.49015625 16.1953125 18.90625 C20.96790136 16.06300557 24.32571539 15.48640901 29.875 16.0625 C32.86597304 18.60482708 33.71702557 20.2199697 34.4375 24.0625 C33.68510528 28.07527186 32.08192411 29.76715554 28.875 32.0625 C24.93667472 34.51050973 20.93191024 36.81728811 16.875 39.0625 C20.91959351 42.42452298 25.10203406 45.01691056 29.66796875 47.59765625 C31.875 49.0625 31.875 49.0625 33.875 52.0625 C34.3125 54.9375 34.3125 54.9375 33.875 58.0625 C31.54932295 61.20900425 30.14874992 62.86394486 26.21875 63.4765625 C21.6245545 62.90765511 18.42210207 60.92427213 14.5 58.5625 C13.76394531 58.13324219 13.02789062 57.70398438 12.26953125 57.26171875 C10.46455456 56.20686224 8.66881282 55.13623119 6.875 54.0625 C6.89594727 54.64741211 6.91689453 55.23232422 6.93847656 55.83496094 C7.02180115 58.49396465 7.07370897 61.15269355 7.125 63.8125 C7.15851563 64.73289062 7.19203125 65.65328125 7.2265625 66.6015625 C7.32549039 73.4275871 7.32549039 73.4275871 5.04296875 76.64453125 C2.20881806 78.498219 0.26378576 78.99334111 -3.125 79.0625 C-7.69021739 76.93206522 -7.69021739 76.93206522 -9.125 74.0625 C-9.20872659 72.54101674 -9.23230027 71.01594222 -9.22265625 69.4921875 C-9.21943359 68.59628906 -9.21621094 67.70039063 -9.21289062 66.77734375 C-9.20451172 65.84019531 -9.19613281 64.90304687 -9.1875 63.9375 C-9.18298828 62.99261719 -9.17847656 62.04773438 -9.17382812 61.07421875 C-9.16202357 58.73691613 -9.14555759 56.39973939 -9.125 54.0625 C-10.75308594 55.03703125 -10.75308594 55.03703125 -12.4140625 56.03125 C-13.85897737 56.87568077 -15.30431224 57.71939313 -16.75 58.5625 C-17.46285156 58.99175781 -18.17570312 59.42101562 -18.91015625 59.86328125 C-23.10017199 62.28503347 -26.14232134 63.83188421 -31.125 63.0625 C-34.75152055 60.46086569 -35.94803105 58.96343281 -36.8125 54.5625 C-36.08202269 50.84370641 -35.23913925 49.53130548 -32.19140625 47.328125 C-27.93503664 44.72119919 -23.55614644 42.35691924 -19.125 40.0625 C-23.08924215 36.62682347 -27.37064992 34.09756743 -31.91796875 31.52734375 C-34.125 30.0625 -34.125 30.0625 -36.125 27.0625 C-36.54357482 23.22556413 -36.67144269 20.95046936 -34.625 17.625 C-31.1769874 15.46999213 -28.04707842 15.51034987 -24.125 16.0625 C-21.42415002 17.10286473 -19.06311681 18.51382494 -16.625 20.0625 C-15.99335937 20.4440625 -15.36171875 20.825625 -14.7109375 21.21875 C-13.17269734 22.15101676 -11.64740046 23.10458511 -10.125 24.0625 C-10.11082031 22.74894531 -10.09664062 21.43539063 -10.08203125 20.08203125 C-10.03512012 18.34631949 -9.98687279 16.61064348 -9.9375 14.875 C-9.93169922 14.01068359 -9.92589844 13.14636719 -9.91992188 12.25585938 C-9.76599984 7.79212033 -9.54927849 5.63784188 -6.83203125 1.953125 C-4.08738924 0.03623217 -3.21980798 -0.56188806 0 0 Z " fill="#000000" transform="translate(74.125,432.9375)"/>
<path d="M0 0 C2.1796875 1.37890625 2.1796875 1.37890625 4 4 C4.63382423 7.40973261 4.69666916 10.78834341 4.75 14.25 C4.77964844 15.18585938 4.80929688 16.12171875 4.83984375 17.0859375 C4.91039804 19.39071092 4.96316252 21.69448168 5 24 C6.07378906 23.33871094 7.14757812 22.67742187 8.25390625 21.99609375 C9.68951374 21.1422357 11.12574514 20.28942601 12.5625 19.4375 C13.26697266 18.99986328 13.97144531 18.56222656 14.69726562 18.11132812 C18.48403391 15.8951089 20.40534067 14.97621363 24.90625 15.15625 C28 16 28 16 29.9375 17.0625 C31.71185536 20.29808918 31.70110587 23.4736457 31 27 C27.23798857 32.44843035 20.77178923 35.05851022 15 38 C15 38.66 15 39.32 15 40 C15.98742187 40.54269531 16.97484375 41.08539063 17.9921875 41.64453125 C19.28666715 42.36681338 20.58092658 43.08949029 21.875 43.8125 C22.52597656 44.16892578 23.17695313 44.52535156 23.84765625 44.89257812 C27.06597903 46.70081103 28.9196783 47.87951745 31 51 C31.54275757 54.49620463 31.67520303 57.83715034 29.875 60.9375 C27.17187312 62.4692719 25.11388443 62.78827046 22 63 C19.409662 62.00327678 17.21421194 61.01267084 14.8125 59.6875 C14.19697266 59.36587891 13.58144531 59.04425781 12.94726562 58.71289062 C10.19665984 57.26159592 7.58920103 55.72613402 5 54 C4.9906543 54.58491211 4.98130859 55.16982422 4.97167969 55.77246094 C4.91786721 58.4324858 4.83424551 61.09077222 4.75 63.75 C4.73582031 64.67039062 4.72164062 65.59078125 4.70703125 66.5390625 C4.46056128 73.34163355 4.46056128 73.34163355 2.171875 76.61328125 C-1.0212009 78.65202575 -3.29450724 78.4631866 -7 78 C-10.1850357 76.23984869 -10.83296972 75.50109084 -12 72 C-12.08021999 70.59175107 -12.10765977 69.18002769 -12.09765625 67.76953125 C-12.09443359 66.96708984 -12.09121094 66.16464844 -12.08789062 65.33789062 C-12.07951172 64.50451172 -12.07113281 63.67113281 -12.0625 62.8125 C-12.05798828 61.96751953 -12.05347656 61.12253906 -12.04882812 60.25195312 C-12.03705403 58.16793845 -12.0191189 56.08396023 -12 54 C-12.94101563 54.56589844 -13.88203125 55.13179688 -14.8515625 55.71484375 C-16.10908602 56.45621956 -17.36691485 57.19707766 -18.625 57.9375 C-19.24246094 58.31068359 -19.85992187 58.68386719 -20.49609375 59.06835938 C-24.30848355 61.29559763 -27.49786978 62.72104957 -32 63 C-35.52906067 61.39588152 -36.82772908 60.25840638 -39 57 C-38.92898123 53.09396762 -38.78253318 50.83301919 -36.0625 47.9375 C-35.051875 47.298125 -34.04125 46.65875 -33 46 C-32.18015625 45.48050781 -31.3603125 44.96101563 -30.515625 44.42578125 C-23.37660256 40 -23.37660256 40 -21 40 C-21 39.34 -21 38.68 -21 38 C-21.71929687 37.72929687 -22.43859375 37.45859375 -23.1796875 37.1796875 C-25.98152251 36.00772881 -28.51091351 34.66787062 -31.125 33.125 C-31.97320312 32.63257813 -32.82140625 32.14015625 -33.6953125 31.6328125 C-36.08906511 29.93689963 -37.51111671 28.5203972 -39 26 C-39 21.78920629 -38.6203953 19.72987683 -35.875 16.5 C-32.02959638 14.49370246 -30.20680329 15.05791918 -26 16 C-23.39587875 17.16197406 -20.99183428 18.57405074 -18.5625 20.0625 C-17.92634766 20.43955078 -17.29019531 20.81660156 -16.63476562 21.20507812 C-15.08367098 22.12640502 -13.54092657 23.06176593 -12 24 C-12.03480469 22.75863281 -12.06960937 21.51726562 -12.10546875 20.23828125 C-12.13361584 18.59636774 -12.16091501 16.95443954 -12.1875 15.3125 C-12.21263672 14.49587891 -12.23777344 13.67925781 -12.26367188 12.83789062 C-12.32170486 8.05984178 -12.14903871 4.86576907 -9 1 C-5.90826248 -0.54586876 -3.40570448 -0.29359521 0 0 Z " fill="#000000" transform="translate(198,398)"/>
<path d="M0 0 C3 2 3 2 4 5 C4.14492123 6.40664926 4.24628931 7.8181133 4.31640625 9.23046875 C4.35830078 10.03291016 4.40019531 10.83535156 4.44335938 11.66210938 C4.48267578 12.49548828 4.52199219 13.32886719 4.5625 14.1875 C4.60568359 15.03248047 4.64886719 15.87746094 4.69335938 16.74804688 C4.79931518 18.83184433 4.9001502 20.91590103 5 23 C5.92941406 22.4225 6.85882813 21.845 7.81640625 21.25 C9.06462011 20.49919467 10.31334562 19.7492395 11.5625 19 C12.17158203 18.6184375 12.78066406 18.236875 13.40820312 17.84375 C17.73150313 15.28179444 20.84983297 14.40070784 26 15 C29 17 29 17 31 20 C31.47381947 24.9751044 31.47381947 24.9751044 30 28 C27.27658768 30.52146438 24.25056781 32.23644957 21 34 C19.64570155 34.7914412 18.29151816 35.58307936 16.9375 36.375 C15.968125 36.91125 14.99875 37.4475 14 38 C17.96424215 41.43567653 22.24564992 43.96493257 26.79296875 46.53515625 C29 48 29 48 31 51 C31.4375 53.875 31.4375 53.875 31 57 C28.875 59.875 28.875 59.875 26 62 C20.40356154 62.79716711 16.81713649 60.69161318 12.125 58 C11.43664062 57.6184375 10.74828125 57.236875 10.0390625 56.84375 C8.35307255 55.90708892 6.67563186 54.95506752 5 54 C4.95101562 55.25296875 4.90203125 56.5059375 4.8515625 57.796875 C4.77651417 59.44793821 4.70096723 61.09897881 4.625 62.75 C4.5940625 63.575 4.563125 64.4 4.53125 65.25 C4.47324219 66.44882812 4.47324219 66.44882812 4.4140625 67.671875 C4.3826416 68.4050293 4.3512207 69.13818359 4.31884766 69.89355469 C3.83683132 73.07796273 2.87030373 75.3230971 0.3125 77.3125 C-3.10740423 78.32922829 -5.57109774 77.87281149 -9 77 C-11.01046326 74.91807546 -11.91252807 73.58816252 -12.34057617 70.70996094 C-12.32486572 69.89301758 -12.30915527 69.07607422 -12.29296875 68.234375 C-12.28330078 67.34492188 -12.27363281 66.45546875 -12.26367188 65.5390625 C-12.23853516 64.61867188 -12.21339844 63.69828125 -12.1875 62.75 C-12.16719727 61.34621094 -12.16719727 61.34621094 -12.14648438 59.9140625 C-12.11119954 57.60878673 -12.06190281 55.3046894 -12 53 C-13.62808594 53.97453125 -13.62808594 53.97453125 -15.2890625 54.96875 C-16.73397737 55.81318077 -18.17931224 56.65689313 -19.625 57.5 C-20.33785156 57.92925781 -21.05070312 58.35851562 -21.78515625 58.80078125 C-25.99575308 61.23442896 -28.99415364 62.70670772 -34 62 C-36.875 60.5 -36.875 60.5 -39 58 C-39.85382436 53.10991501 -39.85382436 53.10991501 -39 50 C-36.94180064 47.72514808 -35.54424958 46.56339407 -33 45 C-32.14535156 44.47148437 -31.29070312 43.94296875 -30.41015625 43.3984375 C-28.64127012 42.32746197 -26.8629848 41.27180583 -25.07421875 40.234375 C-23.08191089 39.16392236 -23.08191089 39.16392236 -22 38 C-22.97582031 37.45730469 -23.95164062 36.91460937 -24.95703125 36.35546875 C-26.24233367 35.6330725 -27.52748187 34.91040182 -28.8125 34.1875 C-29.45509766 33.83107422 -30.09769531 33.47464844 -30.75976562 33.10742188 C-37.20993764 29.46457861 -37.20993764 29.46457861 -39 27 C-39.75471698 20.20754717 -39.75471698 20.20754717 -37.4375 16.5 C-34.01905287 14.39634023 -31.99336259 14.61354556 -28 15 C-25.01487619 16.22632875 -22.31457565 17.82307193 -19.5625 19.5 C-18.83095703 19.92925781 -18.09941406 20.35851562 -17.34570312 20.80078125 C-15.55578437 21.85367463 -13.77673146 22.92500282 -12 24 C-12.02618408 23.38479492 -12.05236816 22.76958984 -12.0793457 22.13574219 C-12.18345921 19.34075592 -12.24836749 16.54617742 -12.3125 13.75 C-12.35439453 12.78191406 -12.39628906 11.81382812 -12.43945312 10.81640625 C-12.56287722 3.65780881 -12.56287722 3.65780881 -9.70703125 0.3203125 C-6.04743872 -1.46459699 -3.8891859 -1.00830746 0 0 Z " fill="#000000" transform="translate(320,434)"/>
<path d="M0 0 C0.66 -0.00128906 1.32 -0.00257813 2 -0.00390625 C5.12377879 0.88075766 6.13876467 1.86370877 8 4.5625 C8.63191521 7.97265007 8.69666757 11.35074073 8.75 14.8125 C8.77964844 15.74835938 8.80929687 16.68421875 8.83984375 17.6484375 C8.91039804 19.95321092 8.96316252 22.25698168 9 24.5625 C10.07378906 23.90121094 11.14757812 23.23992187 12.25390625 22.55859375 C13.68951374 21.7047357 15.12574514 20.85192601 16.5625 20 C17.26697266 19.56236328 17.97144531 19.12472656 18.69726562 18.67382812 C22.47052513 16.46551496 24.4233951 15.54462525 28.90625 15.68359375 C32 16.5625 32 16.5625 33.9375 18.1875 C35.4590889 21.58869871 35.51749792 23.87532731 35 27.5625 C31.12985626 33.03408253 24.85221817 35.58002104 19 38.5625 C19 39.2225 19 39.8825 19 40.5625 C19.98742187 41.10519531 20.97484375 41.64789063 21.9921875 42.20703125 C23.28666715 42.92931338 24.58092658 43.65199029 25.875 44.375 C26.52597656 44.73142578 27.17695313 45.08785156 27.84765625 45.45507812 C31.06597903 47.26331103 32.9196783 48.44201745 35 51.5625 C35.32561034 55.14421371 35.4273837 57.66024552 33.875 60.9375 C31.24017823 63.2210122 29.47542578 63.36285655 26 63.5625 C23.409662 62.56577678 21.21421194 61.57517084 18.8125 60.25 C18.19697266 59.92837891 17.58144531 59.60675781 16.94726562 59.27539062 C14.19665984 57.82409592 11.58920103 56.28863402 9 54.5625 C8.9906543 55.14741211 8.98130859 55.73232422 8.97167969 56.33496094 C8.91786721 58.9949858 8.83424551 61.65327222 8.75 64.3125 C8.73582031 65.23289062 8.72164063 66.15328125 8.70703125 67.1015625 C8.46043263 73.90768429 8.46043263 73.90768429 6.16796875 77.16796875 C2.90715252 79.26546676 0.7902197 79.16095574 -3 78.5625 C-5.88065592 76.5144036 -7.74700621 74.95326867 -8.39868164 71.37084961 C-8.4921136 68.81305419 -8.4364091 66.30633996 -8.3125 63.75 C-8.28994141 62.86634766 -8.26738281 61.98269531 -8.24414062 61.07226562 C-8.18547428 58.9016109 -8.09579979 56.7318331 -8 54.5625 C-8.94101562 55.12839844 -9.88203125 55.69429688 -10.8515625 56.27734375 C-12.10908602 57.01871956 -13.36691485 57.75957766 -14.625 58.5 C-15.24246094 58.87318359 -15.85992187 59.24636719 -16.49609375 59.63085938 C-20.30848355 61.85809763 -23.49786978 63.28354957 -28 63.5625 C-31.52906067 61.95838152 -32.82772908 60.82090638 -35 57.5625 C-35.125 54.25 -35.125 54.25 -34 50.5625 C-31.60764697 48.11208014 -28.90765928 46.35143222 -26 44.5625 C-25.00226563 43.93794922 -25.00226563 43.93794922 -23.984375 43.30078125 C-19.41096491 40.5625 -19.41096491 40.5625 -17 40.5625 C-17 39.9025 -17 39.2425 -17 38.5625 C-17.71929687 38.29179687 -18.43859375 38.02109375 -19.1796875 37.7421875 C-21.98152251 36.57022881 -24.51091351 35.23037062 -27.125 33.6875 C-27.97320312 33.19507813 -28.82140625 32.70265625 -29.6953125 32.1953125 C-32.09091271 30.49809066 -33.51889024 29.09110516 -35 26.5625 C-34.87971231 23.13430074 -34.6667364 20.61524169 -32.8125 17.6875 C-29.97400332 15.92567447 -28.40090411 15.5625 -25 15.5625 C-21.4883893 16.92426322 -18.26633081 18.69671045 -15 20.5625 C-14.38108887 20.91521973 -13.76217773 21.26793945 -13.12451172 21.63134766 C-11.41511056 22.60624386 -9.70741987 23.58413794 -8 24.5625 C-8.04640625 23.24894531 -8.0928125 21.93539063 -8.140625 20.58203125 C-8.17815266 18.84637696 -8.21455175 17.11069801 -8.25 15.375 C-8.28351563 14.51068359 -8.31703125 13.64636719 -8.3515625 12.75585938 C-8.4156224 8.57595077 -8.35210642 6.17634924 -6.234375 2.484375 C-3.88685023 0.46517537 -3.03853714 -0.10088893 0 0 Z " fill="#000000" transform="translate(437,397.4375)"/>
<path d="M0 0 C-1.63195312 0.92619141 -1.63195312 0.92619141 -3.296875 1.87109375 C-30.43209366 17.4300655 -47.75921477 35.85408503 -61 64 C-61.94875 63.175 -62.8975 62.35 -63.875 61.5 C-68.48450321 57.54358862 -73.24034752 53.77324563 -78 50 C-66.45185826 27.56216319 -43.59320367 10.97146609 -20 3 C-17.18135859 2.1476769 -14.34949533 1.36727039 -11.5 0.625 C-10.81679688 0.44477295 -10.13359375 0.2645459 -9.4296875 0.07885742 C-5.88355348 -0.78427654 -3.47592124 -1.04791602 0 0 Z " fill="#EE8D43" transform="translate(316,76)"/>
<path d="M0 0 C0.93714844 -0.02384766 1.87429688 -0.04769531 2.83984375 -0.07226562 C7.50757944 -0.06233427 9.80244679 0.05228472 13.65625 2.87109375 C15.5 5.5625 15.5 5.5625 15.5 9.1875 C14.51114081 12.52489977 14.18758201 13.5543566 11.5 15.5625 C7.71834836 16.20224583 3.89216925 16.02576536 0.0625 16 C-1.51241211 16.0299707 -1.51241211 16.0299707 -3.11914062 16.06054688 C-4.63604492 16.05958008 -4.63604492 16.05958008 -6.18359375 16.05859375 C-7.56889282 16.06137329 -7.56889282 16.06137329 -8.98217773 16.06420898 C-12.27491644 15.40808777 -13.45977798 14.18363684 -15.5 11.5625 C-16.0625 8.0625 -16.0625 8.0625 -15.5 4.5625 C-11.1408058 -0.50359056 -6.20888623 -0.07259358 0 0 Z " fill="#050402" transform="translate(352.5,147.4375)"/>
<path d="M0 0 C2.97975696 2.21353374 3.89684579 3.39927841 4.53125 7.09375 C4.5209375 8.2178125 4.510625 9.341875 4.5 10.5 C4.5103125 11.6240625 4.520625 12.748125 4.53125 13.90625 C3.89684579 17.60072159 2.97975696 18.78646626 0 21 C-3.86818303 21.55259758 -5.99871124 21.74381451 -9.1875 19.375 C-11.55326687 16.27502961 -11.53547382 14.36664651 -11.5 10.5 C-11.51546875 8.81390625 -11.51546875 8.81390625 -11.53125 7.09375 C-10.38368478 0.41087018 -6.27998419 -0.8971406 0 0 Z " fill="#040301" transform="translate(377,105)"/>
<path d="M0 0 C4.08732979 0.65689229 5.02870456 1.32259432 7.5 4.5625 C7.99609375 7.65625 7.99609375 7.65625 7.9375 11.0625 C7.93621094 12.1865625 7.93492187 13.310625 7.93359375 14.46875 C7.46457066 17.81529314 6.93979067 19.25024385 4.5 21.5625 C-0.09110715 22.21837245 -2.23606471 22.47885309 -6 19.75 C-8.22810576 15.01527526 -8.2475365 10.70277672 -7.5 5.5625 C-5.47204838 1.4254787 -4.54975322 0.73121034 0 0 Z " fill="#050402" transform="translate(326.5,104.4375)"/>
<path d="M0 0 C1.9453125 -0.29296875 1.9453125 -0.29296875 4.125 -0.1875 C5.40375 -0.125625 6.6825 -0.06375 8 0 C4.99382731 3.00617269 2.17618402 2.59585316 -2 3 C-1.34 2.01 -0.68 1.02 0 0 Z " fill="#8A9FB7" transform="translate(162,123)"/>
</svg>
